<?xml version="1.0" encoding="UTF-8" standalone="no"?>
<!DOCTYPE svg PUBLIC "-//W3C//DTD SVG 1.1//EN"
 "http://www.w3.org/Graphics/SVG/1.1/DTD/svg11.dtd">
<!-- Generated by graphviz version 2.40.1 (20161225.0304)
 -->
<!-- Title: G Pages: 1 -->
<svg width="238pt" height="140pt"
 viewBox="0.00 0.00 238.20 140.00" xmlns="http://www.w3.org/2000/svg" xmlns:xlink="http://www.w3.org/1999/xlink">
<g id="graph0" class="graph" transform="scale(1 1) rotate(0) translate(4 136)">
<title>G</title>
<polygon fill="#ffffff" stroke="transparent" points="-4,4 -4,-136 234.2,-136 234.2,4 -4,4"/>
<!-- 1 -->
<g id="node1" class="node">
<title>1</title>
<ellipse fill="#ff0000" stroke="#000000" cx="10.6" cy="-57.6" rx="3.6" ry="3.6"/>
<text text-anchor="middle" x="3.5" y="-65.4" font-family="Times,serif" font-size="14.00" fill="#000000">1</text>
</g>
<!-- 2 -->
<g id="node2" class="node">
<title>2</title>
<ellipse fill="#0000ff" stroke="#000000" cx="82.6" cy="-111.6" rx="3.6" ry="3.6"/>
<text text-anchor="middle" x="75.5" y="-119.4" font-family="Times,serif" font-size="14.00" fill="#000000">2</text>
</g>
<!-- 1&#45;&#45;2 -->
<g id="edge9" class="edge">
<title>1&#45;&#45;2</title>
<path fill="none" stroke="#000000" d="M13.6938,-59.9203C25.537,-68.8028 67.9137,-100.5853 79.5979,-109.3484"/>
</g>
<!-- 3 -->
<g id="node3" class="node">
<title>3</title>
<ellipse fill="#00ff00" stroke="#000000" cx="82.6" cy="-3.6" rx="3.6" ry="3.6"/>
<text text-anchor="middle" x="75.5" y="-11.4" font-family="Times,serif" font-size="14.00" fill="#000000">3</text>
</g>
<!-- 1&#45;&#45;3 -->
<g id="edge5" class="edge">
<title>1&#45;&#45;3</title>
<path fill="none" stroke="#000000" d="M13.6938,-55.2797C25.537,-46.3972 67.9137,-14.6147 79.5979,-5.8516"/>
</g>
<!-- 4 -->
<g id="node4" class="node">
<title>4</title>
<ellipse fill="#ffa500" stroke="#000000" cx="154.6" cy="-111.6" rx="3.6" ry="3.6"/>
<text text-anchor="middle" x="147.5" y="-119.4" font-family="Times,serif" font-size="14.00" fill="#000000">4</text>
</g>
<!-- 1&#45;&#45;4 -->
<g id="edge7" class="edge">
<title>1&#45;&#45;4</title>
<path fill="none" stroke="#000000" d="M14.1596,-58.9348C34.0822,-66.4058 131.5685,-102.9632 151.1649,-110.3118"/>
</g>
<!-- 2&#45;&#45;3 -->
<g id="edge6" class="edge">
<title>2&#45;&#45;3</title>
<path fill="none" stroke="#000000" d="M82.6,-107.7562C82.6,-90.9221 82.6,-23.8031 82.6,-7.2864"/>
</g>
<!-- 2&#45;&#45;4 -->
<g id="edge10" class="edge">
<title>2&#45;&#45;4</title>
<path fill="none" stroke="#000000" d="M86.471,-111.6C98.9726,-111.6 138.1811,-111.6 150.7098,-111.6"/>
</g>
<!-- 3&#45;&#45;4 -->
<g id="edge2" class="edge">
<title>3&#45;&#45;4</title>
<path fill="none" stroke="#000000" d="M84.6772,-6.7158C95.0989,-22.3484 141.6147,-92.122 152.3737,-108.2605"/>
</g>
<!-- 5 -->
<g id="node5" class="node">
<title>5</title>
<ellipse fill="#ff0000" stroke="#000000" cx="154.6" cy="-3.6" rx="3.6" ry="3.6"/>
<text text-anchor="middle" x="147.5" y="-11.4" font-family="Times,serif" font-size="14.00" fill="#000000">5</text>
</g>
<!-- 3&#45;&#45;5 -->
<g id="edge8" class="edge">
<title>3&#45;&#45;5</title>
<path fill="none" stroke="#000000" d="M86.471,-3.6C98.9726,-3.6 138.1811,-3.6 150.7098,-3.6"/>
</g>
<!-- 4&#45;&#45;5 -->
<g id="edge3" class="edge">
<title>4&#45;&#45;5</title>
<path fill="none" stroke="#000000" d="M154.6,-107.7562C154.6,-90.9221 154.6,-23.8031 154.6,-7.2864"/>
</g>
<!-- 6 -->
<g id="node6" class="node">
<title>6</title>
<ellipse fill="#0000ff" stroke="#000000" cx="226.6" cy="-57.6" rx="3.6" ry="3.6"/>
<text text-anchor="middle" x="219.5" y="-65.4" font-family="Times,serif" font-size="14.00" fill="#000000">6</text>
</g>
<!-- 4&#45;&#45;6 -->
<g id="edge4" class="edge">
<title>4&#45;&#45;6</title>
<path fill="none" stroke="#000000" d="M157.6938,-109.2797C169.537,-100.3972 211.9137,-68.6147 223.5979,-59.8516"/>
</g>
<!-- 5&#45;&#45;6 -->
<g id="edge1" class="edge">
<title>5&#45;&#45;6</title>
<path fill="none" stroke="#000000" d="M157.6938,-5.9203C169.537,-14.8028 211.9137,-46.5853 223.5979,-55.3484"/>
</g>
</g>
</svg>
