<?xml version="1.0" encoding="UTF-8" standalone="no"?>
<!DOCTYPE svg PUBLIC "-//W3C//DTD SVG 1.1//EN"
 "http://www.w3.org/Graphics/SVG/1.1/DTD/svg11.dtd">
<!-- Generated by graphviz version 2.40.1 (20161225.0304)
 -->
<!-- Title: G Pages: 1 -->
<svg width="187pt" height="331pt"
 viewBox="0.00 0.00 187.07 331.07" xmlns="http://www.w3.org/2000/svg" xmlns:xlink="http://www.w3.org/1999/xlink">
<g id="graph0" class="graph" transform="scale(1 1) rotate(0) translate(4 327.0725)">
<title>G</title>
<polygon fill="#ffffff" stroke="transparent" points="-4,4 -4,-327.0725 183.0725,-327.0725 183.0725,4 -4,4"/>
<!-- a -->
<g id="node1" class="node">
<title>a</title>
<ellipse fill="none" stroke="#000000" cx="89.5362" cy="-305.5363" rx="17.5726" ry="17.5726"/>
<text text-anchor="middle" x="89.5362" y="-301.3363" font-family="Times,serif" font-size="14.00" fill="#000000">a</text>
</g>
<!-- b -->
<g id="node2" class="node">
<title>b</title>
<ellipse fill="none" stroke="#000000" cx="17.5362" cy="-233.5362" rx="17.5726" ry="17.5726"/>
<text text-anchor="middle" x="17.5362" y="-229.3362" font-family="Times,serif" font-size="14.00" fill="#000000">b</text>
</g>
<!-- a&#45;&gt;b -->
<g id="edge1" class="edge">
<title>a&#45;&gt;b</title>
<path fill="none" stroke="#000000" d="M76.9948,-292.9948C66.1845,-282.1845 50.3755,-266.3756 37.7758,-253.7758"/>
<polygon fill="#000000" stroke="#000000" points="39.9648,-251.015 30.4188,-246.4188 35.015,-255.9648 39.9648,-251.015"/>
</g>
<!-- f -->
<g id="node6" class="node">
<title>f</title>
<ellipse fill="none" stroke="#000000" cx="161.5362" cy="-233.5362" rx="17.5726" ry="17.5726"/>
<text text-anchor="middle" x="161.5362" y="-229.3362" font-family="Times,serif" font-size="14.00" fill="#000000">f</text>
</g>
<!-- a&#45;&gt;f -->
<g id="edge2" class="edge">
<title>a&#45;&gt;f</title>
<path fill="none" stroke="#000000" d="M102.0777,-292.9948C112.888,-282.1845 128.6969,-266.3756 141.2967,-253.7758"/>
<polygon fill="#000000" stroke="#000000" points="144.0575,-255.9648 148.6537,-246.4188 139.1077,-251.015 144.0575,-255.9648"/>
</g>
<!-- c -->
<g id="node3" class="node">
<title>c</title>
<ellipse fill="none" stroke="#000000" cx="17.5362" cy="-161.5362" rx="17.5726" ry="17.5726"/>
<text text-anchor="middle" x="17.5362" y="-157.3362" font-family="Times,serif" font-size="14.00" fill="#000000">c</text>
</g>
<!-- b&#45;&gt;c -->
<g id="edge3" class="edge">
<title>b&#45;&gt;c</title>
<path fill="none" stroke="#000000" d="M17.5362,-215.7385C17.5362,-207.717 17.5362,-198.0593 17.5362,-189.1319"/>
<polygon fill="#000000" stroke="#000000" points="21.0363,-189.1292 17.5362,-179.1293 14.0363,-189.1293 21.0363,-189.1292"/>
</g>
<!-- d -->
<g id="node4" class="node">
<title>d</title>
<ellipse fill="none" stroke="#000000" cx="17.5362" cy="-89.5362" rx="17.5726" ry="17.5726"/>
<text text-anchor="middle" x="17.5362" y="-85.3362" font-family="Times,serif" font-size="14.00" fill="#000000">d</text>
</g>
<!-- c&#45;&gt;d -->
<g id="edge4" class="edge">
<title>c&#45;&gt;d</title>
<path fill="none" stroke="#000000" d="M17.5362,-143.7385C17.5362,-135.717 17.5362,-126.0593 17.5362,-117.1319"/>
<polygon fill="#000000" stroke="#000000" points="21.0363,-117.1292 17.5362,-107.1293 14.0363,-117.1293 21.0363,-117.1292"/>
</g>
<!-- e -->
<g id="node5" class="node">
<title>e</title>
<ellipse fill="none" stroke="#000000" cx="17.5362" cy="-17.5362" rx="17.5726" ry="17.5726"/>
<text text-anchor="middle" x="17.5362" y="-13.3362" font-family="Times,serif" font-size="14.00" fill="#000000">e</text>
</g>
<!-- d&#45;&gt;e -->
<g id="edge5" class="edge">
<title>d&#45;&gt;e</title>
<path fill="none" stroke="#000000" d="M17.5362,-71.7385C17.5362,-63.717 17.5362,-54.0593 17.5362,-45.1319"/>
<polygon fill="#000000" stroke="#000000" points="21.0363,-45.1292 17.5362,-35.1293 14.0363,-45.1293 21.0363,-45.1292"/>
</g>
<!-- g -->
<g id="node7" class="node">
<title>g</title>
<ellipse fill="none" stroke="#000000" cx="161.5362" cy="-161.5362" rx="17.5726" ry="17.5726"/>
<text text-anchor="middle" x="161.5362" y="-157.3362" font-family="Times,serif" font-size="14.00" fill="#000000">g</text>
</g>
<!-- f&#45;&gt;g -->
<g id="edge6" class="edge">
<title>f&#45;&gt;g</title>
<path fill="none" stroke="#000000" d="M161.5362,-215.7385C161.5362,-207.717 161.5362,-198.0593 161.5362,-189.1319"/>
<polygon fill="#000000" stroke="#000000" points="165.0363,-189.1292 161.5362,-179.1293 158.0363,-189.1293 165.0363,-189.1292"/>
</g>
<!-- h -->
<g id="node8" class="node">
<title>h</title>
<ellipse fill="none" stroke="#000000" cx="161.5362" cy="-89.5362" rx="17.5726" ry="17.5726"/>
<text text-anchor="middle" x="161.5362" y="-85.3362" font-family="Times,serif" font-size="14.00" fill="#000000">h</text>
</g>
<!-- g&#45;&gt;h -->
<g id="edge7" class="edge">
<title>g&#45;&gt;h</title>
<path fill="none" stroke="#000000" d="M161.5362,-143.7385C161.5362,-135.717 161.5362,-126.0593 161.5362,-117.1319"/>
<polygon fill="#000000" stroke="#000000" points="165.0363,-117.1292 161.5362,-107.1293 158.0363,-117.1293 165.0363,-117.1292"/>
</g>
<!-- i -->
<g id="node9" class="node">
<title>i</title>
<ellipse fill="none" stroke="#000000" cx="161.5362" cy="-17.5362" rx="17.5726" ry="17.5726"/>
<text text-anchor="middle" x="161.5362" y="-13.3362" font-family="Times,serif" font-size="14.00" fill="#000000">i</text>
</g>
<!-- h&#45;&gt;i -->
<g id="edge8" class="edge">
<title>h&#45;&gt;i</title>
<path fill="none" stroke="#000000" d="M161.5362,-71.7385C161.5362,-63.717 161.5362,-54.0593 161.5362,-45.1319"/>
<polygon fill="#000000" stroke="#000000" points="165.0363,-45.1292 161.5362,-35.1293 158.0363,-45.1293 165.0363,-45.1292"/>
</g>
</g>
</svg>
