<?xml version="1.0" encoding="UTF-8" standalone="no"?>
<!DOCTYPE svg PUBLIC "-//W3C//DTD SVG 1.1//EN"
 "http://www.w3.org/Graphics/SVG/1.1/DTD/svg11.dtd">
<!-- Generated by graphviz version 2.40.1 (20161225.0304)
 -->
<!-- Title: G Pages: 1 -->
<svg width="224pt" height="116pt"
 viewBox="0.00 0.00 224.00 116.00" xmlns="http://www.w3.org/2000/svg" xmlns:xlink="http://www.w3.org/1999/xlink">
<g id="graph0" class="graph" transform="scale(1 1) rotate(0) translate(4 112)">
<title>G</title>
<polygon fill="#ffffff" stroke="transparent" points="-4,4 -4,-112 220,-112 220,4 -4,4"/>
<!-- 5 -->
<g id="node1" class="node">
<title>5</title>
<ellipse fill="#000000" stroke="#000000" cx="0" cy="-108" rx="0" ry="0"/>
</g>
<!-- 6 -->
<g id="node4" class="node">
<title>6</title>
<ellipse fill="#000000" stroke="#000000" cx="0" cy="-54" rx="0" ry="0"/>
</g>
<!-- 5&#45;&#45;6 -->
<g id="edge5" class="edge">
<title>5&#45;&#45;6</title>
<path fill="none" stroke="#000000" d="M0,-107.8451C0,-104.7767 0,-57.121 0,-54.1455"/>
</g>
<!-- 4 -->
<g id="node2" class="node">
<title>4</title>
<ellipse fill="#000000" stroke="#000000" cx="144" cy="-108" rx="0" ry="0"/>
</g>
<!-- 4&#45;&#45;5 -->
<g id="edge1" class="edge">
<title>4&#45;&#45;5</title>
<path fill="none" stroke="#000000" d="M143.8956,-108C139.6033,-108 4.3275,-108 .1012,-108"/>
</g>
<!-- 7 -->
<g id="node5" class="node">
<title>7</title>
<ellipse fill="#000000" stroke="#000000" cx="144" cy="-54" rx="0" ry="0"/>
</g>
<!-- 4&#45;&#45;7 -->
<g id="edge10" class="edge">
<title>4&#45;&#45;7</title>
<path fill="none" stroke="#000000" d="M144,-107.8451C144,-104.7767 144,-57.121 144,-54.1455"/>
</g>
<!-- 3 -->
<g id="node3" class="node">
<title>3</title>
<ellipse fill="#000000" stroke="#000000" cx="216" cy="-108" rx="0" ry="0"/>
</g>
<!-- 3&#45;&#45;4 -->
<g id="edge4" class="edge">
<title>3&#45;&#45;4</title>
<path fill="none" stroke="#000000" d="M215.9478,-108C213.8016,-108 146.1637,-108 144.0506,-108"/>
</g>
<!-- 6&#45;&#45;7 -->
<g id="edge11" class="edge">
<title>6&#45;&#45;7</title>
<path fill="none" stroke="#000000" d="M.1044,-54C4.3967,-54 139.6725,-54 143.8988,-54"/>
</g>
<!-- 0 -->
<g id="node6" class="node">
<title>0</title>
<ellipse fill="#000000" stroke="#000000" cx="0" cy="0" rx="0" ry="0"/>
</g>
<!-- 0&#45;&#45;6 -->
<g id="edge6" class="edge">
<title>0&#45;&#45;6</title>
<path fill="none" stroke="#000000" d="M0,-.1549C0,-3.2233 0,-50.879 0,-53.8545"/>
</g>
<!-- 1 -->
<g id="node7" class="node">
<title>1</title>
<ellipse fill="#000000" stroke="#000000" cx="144" cy="0" rx="0" ry="0"/>
</g>
<!-- 0&#45;&#45;1 -->
<g id="edge9" class="edge">
<title>0&#45;&#45;1</title>
<path fill="none" stroke="#000000" d="M.1044,0C4.3967,0 139.6725,0 143.8988,0"/>
</g>
<!-- 1&#45;&#45;5 -->
<g id="edge12" class="edge">
<title>1&#45;&#45;5</title>
<path fill="none" stroke="#000000" d="M143.8956,-.0783C139.6033,-3.2975 4.3275,-104.7544 .1012,-107.9241"/>
</g>
<!-- 1&#45;&#45;3 -->
<g id="edge8" class="edge">
<title>1&#45;&#45;3</title>
<path fill="none" stroke="#000000" d="M144.0522,-.0783C146.1984,-3.2975 213.8363,-104.7544 215.9494,-107.9241"/>
</g>
<!-- 1&#45;&#45;6 -->
<g id="edge3" class="edge">
<title>1&#45;&#45;6</title>
<path fill="none" stroke="#000000" d="M143.8956,-.0391C139.6033,-1.6488 4.3275,-52.3772 .1012,-53.9621"/>
</g>
<!-- 2 -->
<g id="node8" class="node">
<title>2</title>
<ellipse fill="#000000" stroke="#000000" cx="216" cy="0" rx="0" ry="0"/>
</g>
<!-- 2&#45;&#45;3 -->
<g id="edge2" class="edge">
<title>2&#45;&#45;3</title>
<path fill="none" stroke="#000000" d="M216,-.0783C216,-3.2975 216,-104.7544 216,-107.9241"/>
</g>
<!-- 2&#45;&#45;7 -->
<g id="edge7" class="edge">
<title>2&#45;&#45;7</title>
<path fill="none" stroke="#000000" d="M215.9478,-.0391C213.8016,-1.6488 146.1637,-52.3772 144.0506,-53.9621"/>
</g>
</g>
</svg>
