<?xml version="1.0" encoding="UTF-8" standalone="no"?>
<!DOCTYPE svg PUBLIC "-//W3C//DTD SVG 1.1//EN"
 "http://www.w3.org/Graphics/SVG/1.1/DTD/svg11.dtd">
<!-- Generated by graphviz version 2.40.1 (20161225.0304)
 -->
<!-- Title: G Pages: 1 -->
<svg width="152pt" height="80pt"
 viewBox="0.00 0.00 152.00 80.00" xmlns="http://www.w3.org/2000/svg" xmlns:xlink="http://www.w3.org/1999/xlink">
<g id="graph0" class="graph" transform="scale(1 1) rotate(0) translate(4 76)">
<title>G</title>
<polygon fill="#ffffff" stroke="transparent" points="-4,4 -4,-76 148,-76 148,4 -4,4"/>
<!-- 3 -->
<g id="node1" class="node">
<title>3</title>
<ellipse fill="#000000" stroke="#000000" cx="0" cy="-72" rx="0" ry="0"/>
</g>
<!-- 2 -->
<g id="node2" class="node">
<title>2</title>
<ellipse fill="#000000" stroke="#000000" cx="144" cy="-72" rx="0" ry="0"/>
</g>
<!-- 2&#45;&#45;3 -->
<g id="edge2" class="edge">
<title>2&#45;&#45;3</title>
<path fill="none" stroke="#000000" d="M143.8956,-72C139.6033,-72 4.3275,-72 .1012,-72"/>
</g>
<!-- 1 -->
<g id="node3" class="node">
<title>1</title>
<ellipse fill="#000000" stroke="#000000" cx="144" cy="0" rx="0" ry="0"/>
</g>
<!-- 1&#45;&#45;3 -->
<g id="edge5" class="edge">
<title>1&#45;&#45;3</title>
<path fill="none" stroke="#000000" d="M143.8956,-.0522C139.6033,-2.1984 4.3275,-69.8363 .1012,-71.9494"/>
</g>
<!-- 1&#45;&#45;2 -->
<g id="edge3" class="edge">
<title>1&#45;&#45;2</title>
<path fill="none" stroke="#000000" d="M144,-.0522C144,-2.1984 144,-69.8363 144,-71.9494"/>
</g>
<!-- 0 -->
<g id="node4" class="node">
<title>0</title>
<ellipse fill="#000000" stroke="#000000" cx="0" cy="0" rx="0" ry="0"/>
</g>
<!-- 0&#45;&#45;3 -->
<g id="edge1" class="edge">
<title>0&#45;&#45;3</title>
<path fill="none" stroke="#000000" d="M0,-.0522C0,-2.1984 0,-69.8363 0,-71.9494"/>
</g>
<!-- 0&#45;&#45;2 -->
<g id="edge4" class="edge">
<title>0&#45;&#45;2</title>
<path fill="none" stroke="#000000" d="M.1044,-.0522C4.3967,-2.1984 139.6725,-69.8363 143.8988,-71.9494"/>
</g>
<!-- 0&#45;&#45;1 -->
<g id="edge6" class="edge">
<title>0&#45;&#45;1</title>
<path fill="none" stroke="#000000" d="M.1044,0C4.3967,0 139.6725,0 143.8988,0"/>
</g>
</g>
</svg>
