<?xml version="1.0" encoding="UTF-8" standalone="no"?>
<!DOCTYPE svg PUBLIC "-//W3C//DTD SVG 1.1//EN"
 "http://www.w3.org/Graphics/SVG/1.1/DTD/svg11.dtd">
<!-- Generated by graphviz version 2.40.1 (20161225.0304)
 -->
<!-- Title: G Pages: 1 -->
<svg width="260pt" height="80pt"
 viewBox="0.00 0.00 260.00 80.00" xmlns="http://www.w3.org/2000/svg" xmlns:xlink="http://www.w3.org/1999/xlink">
<g id="graph0" class="graph" transform="scale(1 1) rotate(0) translate(4 76)">
<title>G</title>
<polygon fill="#ffffff" stroke="transparent" points="-4,4 -4,-76 256,-76 256,4 -4,4"/>
<!-- 5 -->
<g id="node1" class="node">
<title>5</title>
<ellipse fill="#000000" stroke="#000000" cx="0" cy="-72" rx="0" ry="0"/>
</g>
<!-- 4 -->
<g id="node2" class="node">
<title>4</title>
<ellipse fill="#000000" stroke="#000000" cx="216" cy="-72" rx="0" ry="0"/>
</g>
<!-- 4&#45;&#45;5 -->
<g id="edge1" class="edge">
<title>4&#45;&#45;5</title>
<path fill="none" stroke="#000000" d="M215.8434,-72C209.4049,-72 6.4912,-72 .1517,-72"/>
</g>
<!-- 3 -->
<g id="node3" class="node">
<title>3</title>
<ellipse fill="#000000" stroke="#000000" cx="252" cy="-72" rx="0" ry="0"/>
</g>
<!-- 3&#45;&#45;4 -->
<g id="edge3" class="edge">
<title>3&#45;&#45;4</title>
<path fill="none" stroke="#000000" d="M251.8967,-72C249.8511,-72 218.0806,-72 216.097,-72"/>
</g>
<!-- 0 -->
<g id="node4" class="node">
<title>0</title>
<ellipse fill="#000000" stroke="#000000" cx="0" cy="0" rx="0" ry="0"/>
</g>
<!-- 0&#45;&#45;5 -->
<g id="edge5" class="edge">
<title>0&#45;&#45;5</title>
<path fill="none" stroke="#000000" d="M0,-.0522C0,-2.1984 0,-69.8363 0,-71.9494"/>
</g>
<!-- 0&#45;&#45;4 -->
<g id="edge9" class="edge">
<title>0&#45;&#45;4</title>
<path fill="none" stroke="#000000" d="M.1566,-.0522C6.5951,-2.1984 209.5088,-69.8363 215.8483,-71.9494"/>
</g>
<!-- 1 -->
<g id="node5" class="node">
<title>1</title>
<ellipse fill="#000000" stroke="#000000" cx="108" cy="0" rx="0" ry="0"/>
</g>
<!-- 0&#45;&#45;1 -->
<g id="edge7" class="edge">
<title>0&#45;&#45;1</title>
<path fill="none" stroke="#000000" d="M.0783,0C3.2975,0 104.7544,0 107.9241,0"/>
</g>
<!-- 1&#45;&#45;5 -->
<g id="edge8" class="edge">
<title>1&#45;&#45;5</title>
<path fill="none" stroke="#000000" d="M107.9217,-.0522C104.7025,-2.1984 3.2456,-69.8363 .0759,-71.9494"/>
</g>
<!-- 1&#45;&#45;3 -->
<g id="edge6" class="edge">
<title>1&#45;&#45;3</title>
<path fill="none" stroke="#000000" d="M108.1044,-.0522C112.3967,-2.1984 247.6725,-69.8363 251.8988,-71.9494"/>
</g>
<!-- 2 -->
<g id="node6" class="node">
<title>2</title>
<ellipse fill="#000000" stroke="#000000" cx="216" cy="0" rx="0" ry="0"/>
</g>
<!-- 1&#45;&#45;2 -->
<g id="edge4" class="edge">
<title>1&#45;&#45;2</title>
<path fill="none" stroke="#000000" d="M108.0783,0C111.2975,0 212.7544,0 215.9241,0"/>
</g>
<!-- 2&#45;&#45;5 -->
<g id="edge11" class="edge">
<title>2&#45;&#45;5</title>
<path fill="none" stroke="#000000" d="M215.8434,-.0522C209.4049,-2.1984 6.4912,-69.8363 .1517,-71.9494"/>
</g>
<!-- 2&#45;&#45;4 -->
<g id="edge10" class="edge">
<title>2&#45;&#45;4</title>
<path fill="none" stroke="#000000" d="M216,-.0522C216,-2.1984 216,-69.8363 216,-71.9494"/>
</g>
<!-- 2&#45;&#45;3 -->
<g id="edge2" class="edge">
<title>2&#45;&#45;3</title>
<path fill="none" stroke="#000000" d="M216.0261,-.0522C217.0992,-2.1984 250.9181,-69.8363 251.9747,-71.9494"/>
</g>
</g>
</svg>
