<?xml version="1.0" encoding="UTF-8" standalone="no"?>
<!DOCTYPE svg PUBLIC "-//W3C//DTD SVG 1.1//EN"
 "http://www.w3.org/Graphics/SVG/1.1/DTD/svg11.dtd">
<!-- Generated by graphviz version 2.40.1 (20161225.0304)
 -->
<!-- Title: G Pages: 1 -->
<svg width="378pt" height="171pt"
 viewBox="0.00 0.00 377.81 170.60" xmlns="http://www.w3.org/2000/svg" xmlns:xlink="http://www.w3.org/1999/xlink">
<g id="graph0" class="graph" transform="scale(1 1) rotate(0) translate(4 166.6)">
<title>G</title>
<polygon fill="#ffffff" stroke="transparent" points="-4,4 -4,-166.6 373.8146,-166.6 373.8146,4 -4,4"/>
<!-- a -->
<g id="node1" class="node">
<title>a</title>
<ellipse fill="#000000" stroke="#000000" cx="8.0146" cy="-72" rx="1.8" ry="1.8"/>
<text text-anchor="middle" x="3.1073" y="-78" font-family="Times,serif" font-size="14.00" fill="#000000">a</text>
</g>
<!-- b1 -->
<!-- a&#45;&gt;b1 -->
<g id="edge1" class="edge">
<title>a&#45;&gt;b1</title>
<path fill="none" stroke="#000000" d="M8.9045,-73.7798C14.191,-84.3529 41.3233,-138.6174 43.8291,-143.629"/>
<polygon fill="#000000" stroke="#000000" points="43.9296,-143.83 43.9296,-143.83 43.9296,-143.83 43.9296,-143.83"/>
</g>
<!-- f -->
<g id="node9" class="node">
<title>f</title>
<ellipse fill="#000000" stroke="#000000" cx="80.0146" cy="-72" rx="1.8" ry="1.8"/>
<text text-anchor="middle" x="75.8843" y="-78" font-family="Times,serif" font-size="14.00" fill="#000000">f</text>
</g>
<!-- a&#45;&gt;f -->
<g id="edge2" class="edge">
<title>a&#45;&gt;f</title>
<path fill="none" stroke="#000000" d="M10.0918,-72C18.4701,-72 50.1759,-72 67.8773,-72"/>
<polygon fill="#000000" stroke="#000000" points="68.0655,-75.5001 78.0655,-72 68.0654,-68.5001 68.0655,-75.5001"/>
</g>
<!-- h1 -->
<!-- a&#45;&gt;h1 -->
<g id="edge3" class="edge">
<title>a&#45;&gt;h1</title>
<path fill="none" stroke="#000000" d="M8.9045,-70.2202C14.191,-59.6471 41.3233,-5.3826 43.8291,-.371"/>
<polygon fill="#000000" stroke="#000000" points="43.9296,-.17 43.9296,-.17 43.9296,-.17 43.9296,-.17"/>
</g>
<!-- b -->
<g id="node3" class="node">
<title>b</title>
<ellipse fill="#000000" stroke="#000000" cx="152.0146" cy="-144" rx="1.8" ry="1.8"/>
<text text-anchor="middle" x="146.7146" y="-150" font-family="Times,serif" font-size="14.00" fill="#000000">b</text>
</g>
<!-- b1&#45;&gt;b -->
<g id="edge4" class="edge">
<title>b1&#45;&gt;b</title>
<path fill="none" stroke="#000000" d="M44.0929,-144C46.672,-144 112.3046,-144 139.9342,-144"/>
<polygon fill="#000000" stroke="#000000" points="140.1967,-147.5001 150.1966,-144 140.1966,-140.5001 140.1967,-147.5001"/>
</g>
<!-- c -->
<g id="node4" class="node">
<title>c</title>
<ellipse fill="#000000" stroke="#000000" cx="224.0146" cy="-108" rx="1.8" ry="1.8"/>
<text text-anchor="middle" x="219.1073" y="-114" font-family="Times,serif" font-size="14.00" fill="#000000">c</text>
</g>
<!-- b&#45;&gt;c -->
<g id="edge5" class="edge">
<title>b&#45;&gt;c</title>
<path fill="none" stroke="#000000" d="M153.7944,-143.1101C161.888,-139.0633 195.5836,-122.2155 213.1904,-113.4121"/>
<polygon fill="#000000" stroke="#000000" points="214.918,-116.4615 222.297,-108.8588 211.7875,-110.2005 214.918,-116.4615"/>
</g>
<!-- d1 -->
<!-- b&#45;&gt;d1 -->
<g id="edge6" class="edge">
<title>b&#45;&gt;d1</title>
<path fill="none" stroke="#000000" d="M153.6757,-145.6611C157.7227,-149.7081 167.8956,-159.881 169.7291,-161.7145"/>
<polygon fill="#000000" stroke="#000000" points="169.8801,-161.8655 169.8801,-161.8655 169.8801,-161.8655 169.8801,-161.8655"/>
</g>
<!-- d -->
<g id="node7" class="node">
<title>d</title>
<ellipse fill="#000000" stroke="#000000" cx="296.0146" cy="-108" rx="1.8" ry="1.8"/>
<text text-anchor="middle" x="290.7146" y="-114" font-family="Times,serif" font-size="14.00" fill="#000000">d</text>
</g>
<!-- c&#45;&gt;d -->
<g id="edge9" class="edge">
<title>c&#45;&gt;d</title>
<path fill="none" stroke="#000000" d="M226.0918,-108C234.4701,-108 266.1759,-108 283.8773,-108"/>
<polygon fill="#000000" stroke="#000000" points="284.0655,-111.5001 294.0655,-108 284.0654,-104.5001 284.0655,-111.5001"/>
</g>
<!-- d2 -->
<!-- d1&#45;&gt;d2 -->
<g id="edge7" class="edge">
<title>d1&#45;&gt;d2</title>
<path fill="none" stroke="#000000" d="M170.1179,-162C172.0995,-162 201.9773,-162 205.6462,-162"/>
<polygon fill="#000000" stroke="#000000" points="205.9176,-162 205.9176,-162 205.9176,-162 205.9176,-162"/>
</g>
<!-- d2&#45;&gt;d -->
<g id="edge8" class="edge">
<title>d2&#45;&gt;d</title>
<path fill="none" stroke="#000000" d="M206.0798,-161.9609C208.2109,-160.6822 261.9997,-128.409 285.3554,-114.3955"/>
<polygon fill="#000000" stroke="#000000" points="287.4172,-117.2402 294.1914,-109.0939 283.8157,-111.2377 287.4172,-117.2402"/>
</g>
<!-- e -->
<g id="node8" class="node">
<title>e</title>
<ellipse fill="#000000" stroke="#000000" cx="368.0146" cy="-108" rx="1.8" ry="1.8"/>
<text text-anchor="middle" x="363.1073" y="-114" font-family="Times,serif" font-size="14.00" fill="#000000">e</text>
</g>
<!-- d&#45;&gt;e -->
<g id="edge10" class="edge">
<title>d&#45;&gt;e</title>
<path fill="none" stroke="#000000" d="M298.0918,-108C306.4701,-108 338.1759,-108 355.8773,-108"/>
<polygon fill="#000000" stroke="#000000" points="356.0655,-111.5001 366.0655,-108 356.0654,-104.5001 356.0655,-111.5001"/>
</g>
<!-- g -->
<g id="node10" class="node">
<title>g</title>
<ellipse fill="#000000" stroke="#000000" cx="152.0146" cy="-72" rx="1.8" ry="1.8"/>
<text text-anchor="middle" x="146.7146" y="-78" font-family="Times,serif" font-size="14.00" fill="#000000">g</text>
</g>
<!-- f&#45;&gt;g -->
<g id="edge11" class="edge">
<title>f&#45;&gt;g</title>
<path fill="none" stroke="#000000" d="M82.0918,-72C90.4701,-72 122.1759,-72 139.8773,-72"/>
<polygon fill="#000000" stroke="#000000" points="140.0655,-75.5001 150.0655,-72 140.0654,-68.5001 140.0655,-75.5001"/>
</g>
<!-- g&#45;&gt;c -->
<g id="edge12" class="edge">
<title>g&#45;&gt;c</title>
<path fill="none" stroke="#000000" d="M153.7944,-72.8899C161.888,-76.9367 195.5836,-93.7845 213.1904,-102.5879"/>
<polygon fill="#000000" stroke="#000000" points="211.7875,-105.7995 222.297,-107.1412 214.918,-99.5385 211.7875,-105.7995"/>
</g>
<!-- h -->
<g id="node13" class="node">
<title>h</title>
<ellipse fill="#000000" stroke="#000000" cx="224.0146" cy="-36" rx="1.8" ry="1.8"/>
<text text-anchor="middle" x="218.7146" y="-42" font-family="Times,serif" font-size="14.00" fill="#000000">h</text>
</g>
<!-- g&#45;&gt;h -->
<g id="edge13" class="edge">
<title>g&#45;&gt;h</title>
<path fill="none" stroke="#000000" d="M153.7944,-71.1101C161.888,-67.0633 195.5836,-50.2155 213.1904,-41.4121"/>
<polygon fill="#000000" stroke="#000000" points="214.918,-44.4615 222.297,-36.8588 211.7875,-38.2005 214.918,-44.4615"/>
</g>
<!-- h2 -->
<!-- h1&#45;&gt;h2 -->
<g id="edge14" class="edge">
<title>h1&#45;&gt;h2</title>
<path fill="none" stroke="#000000" d="M44.119,0C48.3442,0 179.4917,0 187.6204,0"/>
<polygon fill="#000000" stroke="#000000" points="187.9134,0 187.9134,0 187.9134,0 187.9134,0"/>
</g>
<!-- h2&#45;&gt;h -->
<g id="edge15" class="edge">
<title>h2&#45;&gt;h</title>
<path fill="none" stroke="#000000" d="M188.1179,-.1033C189.5325,-1.5179 205.162,-17.1474 215.3258,-27.3112"/>
<polygon fill="#000000" stroke="#000000" points="213.0128,-29.948 222.5588,-34.5442 217.9626,-24.9982 213.0128,-29.948"/>
</g>
<!-- i -->
<g id="node14" class="node">
<title>i</title>
<ellipse fill="#000000" stroke="#000000" cx="296.0146" cy="-36" rx="1.8" ry="1.8"/>
<text text-anchor="middle" x="292.2693" y="-42" font-family="Times,serif" font-size="14.00" fill="#000000">i</text>
</g>
<!-- h&#45;&gt;i -->
<g id="edge16" class="edge">
<title>h&#45;&gt;i</title>
<path fill="none" stroke="#000000" d="M226.0918,-36C234.4701,-36 266.1759,-36 283.8773,-36"/>
<polygon fill="#000000" stroke="#000000" points="284.0655,-39.5001 294.0655,-36 284.0654,-32.5001 284.0655,-39.5001"/>
</g>
<!-- i&#45;&gt;e -->
<g id="edge17" class="edge">
<title>i&#45;&gt;e</title>
<path fill="none" stroke="#000000" d="M297.5184,-37.5038C305.3513,-45.3367 341.7747,-81.7601 358.9748,-98.9602"/>
<polygon fill="#000000" stroke="#000000" points="356.9731,-101.9082 366.5191,-106.5045 361.9228,-96.9585 356.9731,-101.9082"/>
</g>
</g>
</svg>
