<?xml version="1.0" encoding="UTF-8" standalone="no"?>
<!DOCTYPE svg PUBLIC "-//W3C//DTD SVG 1.1//EN"
 "http://www.w3.org/Graphics/SVG/1.1/DTD/svg11.dtd">
<!-- Generated by graphviz version 2.40.1 (20161225.0304)
 -->
<!-- Title: G Pages: 1 -->
<svg width="404pt" height="224pt"
 viewBox="0.00 0.00 404.38 224.38" xmlns="http://www.w3.org/2000/svg" xmlns:xlink="http://www.w3.org/1999/xlink">
<g id="graph0" class="graph" transform="scale(1 1) rotate(0) translate(4 220.3758)">
<title>G</title>
<polygon fill="#ffffff" stroke="transparent" points="-4,4 -4,-220.3758 400.3758,-220.3758 400.3758,4 -4,4"/>
<!-- B -->
<g id="node1" class="node">
<title>B</title>
<ellipse fill="none" stroke="#000000" cx="17.9157" cy="-17.9157" rx="17.8318" ry="17.8318"/>
<text text-anchor="middle" x="17.9157" y="-13.7157" font-family="Times,serif" font-size="14.00" fill="#000000">B</text>
</g>
<!-- C -->
<g id="node2" class="node">
<title>C</title>
<ellipse fill="none" stroke="#000000" cx="17.9157" cy="-107.9157" rx="17.8318" ry="17.8318"/>
<text text-anchor="middle" x="17.9157" y="-103.7157" font-family="Times,serif" font-size="14.00" fill="#000000">C</text>
</g>
<!-- B&#45;&#45;C -->
<g id="edge1" class="edge">
<title>B&#45;&#45;C</title>
<path fill="none" stroke="#000000" d="M17.9157,-36.1285C17.9157,-51.7431 17.9157,-74.1232 17.9157,-89.7299"/>
<text text-anchor="middle" x="10.9157" y="-67.1292" font-family="Times,serif" font-size="14.00" fill="#000000">12</text>
</g>
<!-- F -->
<g id="node4" class="node">
<title>F</title>
<ellipse fill="none" stroke="#000000" cx="107.9157" cy="-17.9157" rx="17.5726" ry="17.5726"/>
<text text-anchor="middle" x="107.9157" y="-13.7157" font-family="Times,serif" font-size="14.00" fill="#000000">F</text>
</g>
<!-- B&#45;&#45;F -->
<g id="edge2" class="edge">
<title>B&#45;&#45;F</title>
<path fill="none" stroke="#000000" d="M36.1285,-17.9157C51.9486,-17.9157 74.7133,-17.9157 90.3424,-17.9157"/>
<text text-anchor="middle" x="56.2355" y="-22.1157" font-family="Times,serif" font-size="14.00" fill="#000000">15</text>
</g>
<!-- D -->
<g id="node3" class="node">
<title>D</title>
<ellipse fill="none" stroke="#000000" cx="197.9157" cy="-197.9157" rx="18.4204" ry="18.4204"/>
<text text-anchor="middle" x="197.9157" y="-193.7157" font-family="Times,serif" font-size="14.00" fill="#000000">D</text>
</g>
<!-- C&#45;&#45;D -->
<g id="edge3" class="edge">
<title>C&#45;&#45;D</title>
<path fill="none" stroke="#000000" d="M34.2069,-116.0613C68.3038,-133.1098 146.8682,-172.392 181.2704,-189.5931"/>
<text text-anchor="middle" x="104.2387" y="-157.0272" font-family="Times,serif" font-size="14.00" fill="#000000">2</text>
</g>
<!-- C&#45;&#45;F -->
<g id="edge4" class="edge">
<title>C&#45;&#45;F</title>
<path fill="none" stroke="#000000" d="M30.8105,-95.0209C48.0167,-77.8147 78.2895,-47.5419 95.335,-30.4964"/>
<text text-anchor="middle" x="59.5727" y="-66.9586" font-family="Times,serif" font-size="14.00" fill="#000000">3</text>
</g>
<!-- T -->
<g id="node6" class="node">
<title>T</title>
<ellipse fill="none" stroke="#000000" cx="197.9157" cy="-107.9157" rx="17.5726" ry="17.5726"/>
<text text-anchor="middle" x="197.9157" y="-103.7157" font-family="Times,serif" font-size="14.00" fill="#000000">T</text>
</g>
<!-- C&#45;&#45;T -->
<g id="edge5" class="edge">
<title>C&#45;&#45;T</title>
<path fill="none" stroke="#000000" d="M35.8328,-107.9157C70.4241,-107.9157 146.0142,-107.9157 180.3365,-107.9157"/>
<text text-anchor="middle" x="104.5847" y="-112.1157" font-family="Times,serif" font-size="14.00" fill="#000000">4</text>
</g>
<!-- D&#45;&#45;F -->
<g id="edge6" class="edge">
<title>D&#45;&#45;F</title>
<path fill="none" stroke="#000000" d="M189.61,-181.3044C172.3341,-146.7525 132.7322,-67.5488 115.8139,-33.712"/>
<text text-anchor="middle" x="149.2119" y="-111.7082" font-family="Times,serif" font-size="14.00" fill="#000000">5</text>
</g>
<!-- N -->
<g id="node5" class="node">
<title>N</title>
<ellipse fill="none" stroke="#000000" cx="377.9157" cy="-107.9157" rx="18.4204" ry="18.4204"/>
<text text-anchor="middle" x="377.9157" y="-103.7157" font-family="Times,serif" font-size="14.00" fill="#000000">N</text>
</g>
<!-- D&#45;&#45;N -->
<g id="edge7" class="edge">
<title>D&#45;&#45;N</title>
<path fill="none" stroke="#000000" d="M214.527,-189.61C248.8177,-172.4647 327.0881,-133.3295 361.3445,-116.2013"/>
<text text-anchor="middle" x="280.9358" y="-157.1056" font-family="Times,serif" font-size="14.00" fill="#000000">12</text>
</g>
<!-- D&#45;&#45;T -->
<g id="edge8" class="edge">
<title>D&#45;&#45;T</title>
<path fill="none" stroke="#000000" d="M197.9157,-179.2676C197.9157,-163.5125 197.9157,-141.1032 197.9157,-125.6213"/>
<text text-anchor="middle" x="194.4157" y="-156.6444" font-family="Times,serif" font-size="14.00" fill="#000000">3</text>
</g>
<!-- F&#45;&#45;N -->
<g id="edge9" class="edge">
<title>F&#45;&#45;N</title>
<path fill="none" stroke="#000000" d="M124.8054,-23.5456C173.0628,-39.6314 311.2278,-85.6864 360.3336,-102.055"/>
<text text-anchor="middle" x="235.5695" y="-67.0003" font-family="Times,serif" font-size="14.00" fill="#000000">23</text>
</g>
<!-- F&#45;&#45;T -->
<g id="edge10" class="edge">
<title>F&#45;&#45;T</title>
<path fill="none" stroke="#000000" d="M120.4298,-30.4298C137.6246,-47.6246 168.3691,-78.3691 185.5079,-95.5078"/>
<text text-anchor="middle" x="149.4688" y="-67.1688" font-family="Times,serif" font-size="14.00" fill="#000000">8</text>
</g>
<!-- N&#45;&#45;T -->
<g id="edge11" class="edge">
<title>N&#45;&#45;T</title>
<path fill="none" stroke="#000000" d="M359.3305,-107.9157C324.4789,-107.9157 249.752,-107.9157 215.6004,-107.9157"/>
<text text-anchor="middle" x="283.9654" y="-112.1157" font-family="Times,serif" font-size="14.00" fill="#000000">7</text>
</g>
</g>
</svg>
